# xmcd
#
# Track frame offsets: 
#        150
#        11260
#        32707
#        46060
#        58562
#        88250
#        113560
#        126767
#        140697
#        154887
#
# Disc length: 2271 seconds
#
# Revision: 1
# Processed by: cddbd v1.4PL0 Copyright (c) Steve Scherf et al.
# Submitted via: ExactAudioCopy v0.90b4
#
DISCID=7b08dd0a
DTITLE=Alberta Hunter - Alberta Hunter with Lovie Austin and Her Blues
DTITLE=Serenaders
DYEAR=1962
DGENRE=Blues
TTITLE0=St Louis Blues
TTITLE1=Moanin' Low
TTITLE2=Downhearted Blues
TTITLE3=Now I'm Satisfied
TTITLE4=Sweet Georgia Brown
TTITLE5=You Better Change
TTITLE6=C Jam Blues
TTITLE7=Streets Paved with Gold
TTITLE8=Gallon Stomp
TTITLE9=I Will Always Be In Love With You
EXTD=
EXTT0=
EXTT1=
EXTT2=
EXTT3=
EXTT4=
EXTT5=
EXTT6=
EXTT7=
EXTT8=
EXTT9=
PLAYORDER=
